<?xml version="1.0" standalone="no"?>
<!DOCTYPE svg PUBLIC "-//W3C//DTD SVG 20010904//EN"
 "http://www.w3.org/TR/2001/REC-SVG-20010904/DTD/svg10.dtd">
<svg version="1.0" xmlns="http://www.w3.org/2000/svg"
 width="2048.000000pt" height="2048.000000pt" viewBox="0 0 2048.000000 2048.000000"
 preserveAspectRatio="xMidYMid meet">

<g transform="translate(0.000000,2048.000000) scale(0.100000,-0.100000)"
fill="#000000" stroke="none">
<path d="M5560 17732 c-30 -1 -114 -9 -185 -17 -668 -74 -1266 -354 -1738
-814 -425 -415 -710 -938 -827 -1521 -64 -317 -60 64 -60 -5180 0 -3192 4
-4805 10 -4865 26 -224 72 -439 134 -620 152 -449 389 -821 737 -1160 195
-189 357 -312 583 -440 347 -196 696 -310 1091 -356 116 -13 9515 -21 9745 -8
324 19 632 93 944 226 129 55 321 158 441 237 340 224 661 552 871 893 228
368 372 785 414 1193 7 73 10 1547 10 4889 0 5264 4 4876 -61 5204 -81 410
-292 868 -561 1215 -99 128 -369 401 -488 493 -209 163 -480 321 -705 412
-208 85 -496 164 -720 196 -206 30 -487 32 -5007 29 -2515 -2 -4598 -4 -4628
-6z m5910 -3177 c178 -38 332 -121 478 -259 117 -110 209 -270 253 -438 l23
-86 131 -4 c108 -2 136 -6 164 -23 95 -56 94 -207 -1 -265 -28 -17 -51 -20
-159 -20 -139 0 -139 0 -139 -65 0 -37 -32 -197 -53 -265 -88 -284 -245 -475
-431 -525 -58 -16 -75 -17 -135 -6 -83 15 -185 58 -316 135 -146 86 -165 110
-214 261 -47 143 -51 200 -26 354 20 122 60 205 133 280 113 116 205 141 512
141 l210 0 -6 28 c-17 74 -78 176 -149 251 -85 88 -154 133 -268 174 -165 58
-352 44 -527 -40 -108 -52 -224 -171 -278 -285 -22 -46 -46 -108 -53 -138 -19
-75 -17 -297 3 -377 8 -34 13 -64 11 -66 -2 -2 -34 6 -72 18 -37 12 -109 31
-160 40 -110 22 -109 20 -118 165 -13 212 60 465 180 625 239 319 628 469
1007 390z m-1055 -1450 c215 -53 385 -165 494 -325 33 -48 158 -275 341 -620
74 -139 80 -148 115 -164 44 -21 113 -32 494 -76 189 -22 362 -45 385 -51 119
-32 241 -126 299 -230 l31 -57 126 -4 c102 -4 138 -10 192 -30 158 -59 277
-161 345 -293 48 -95 83 -196 203 -580 92 -294 169 -540 326 -1035 47 -151
126 -405 176 -565 49 -159 122 -393 163 -520 40 -126 115 -363 165 -525 50
-162 105 -336 121 -385 35 -108 36 -138 6 -189 -34 -60 -69 -81 -135 -81 -62
0 -98 19 -125 65 -8 14 -51 144 -97 290 -45 146 -115 369 -155 495 -122 383
-272 861 -319 1015 -24 80 -71 228 -104 330 -34 102 -90 280 -126 395 -35 116
-94 302 -130 415 -35 113 -97 309 -136 435 -79 255 -95 294 -144 351 -67 78
-197 123 -314 109 -51 -6 -53 -8 -77 -56 -53 -104 -186 -203 -305 -228 -83
-18 -959 -27 -1085 -12 -240 29 -395 93 -525 217 -41 40 -133 147 -205 239
-71 92 -178 228 -238 303 -109 139 -133 187 -121 239 18 77 75 123 154 123 57
0 104 -24 143 -74 18 -22 87 -108 153 -191 66 -82 146 -185 178 -228 147 -194
217 -248 371 -288 89 -24 95 -24 607 -23 469 1 519 3 543 18 99 65 77 216 -35
246 -19 5 -156 23 -305 40 -473 53 -524 62 -617 104 -134 60 -168 104 -378
496 -202 376 -222 410 -284 468 -166 157 -460 190 -765 86 -314 -108 -702
-422 -978 -789 -281 -376 -473 -770 -552 -1135 -54 -248 -1 -458 155 -616 87
-88 147 -120 419 -221 209 -78 281 -102 820 -278 182 -59 367 -124 411 -145
93 -43 158 -103 174 -159 19 -69 10 -159 -26 -236 -7 -16 -49 -118 -93 -225
-43 -107 -129 -316 -191 -465 -195 -470 -210 -510 -210 -568 1 -127 108 -207
229 -171 73 21 86 38 281 364 168 282 422 732 510 905 152 300 187 410 178
559 -8 116 -40 186 -127 269 -36 35 -98 85 -136 110 -87 56 -395 211 -715 359
-300 139 -386 186 -431 235 -82 88 -109 211 -73 334 43 143 168 332 309 468
96 92 206 181 223 181 11 0 70 -67 143 -164 l46 -61 -158 -155 c-86 -85 -173
-180 -192 -210 -40 -64 -73 -150 -65 -171 3 -8 142 -79 309 -158 425 -202 693
-340 808 -415 109 -72 225 -188 280 -280 89 -149 120 -335 86 -526 -38 -214
-145 -441 -496 -1050 -181 -315 -389 -657 -443 -728 -48 -65 -145 -136 -223
-164 -72 -25 -201 -34 -272 -19 -90 19 -180 69 -247 135 -97 98 -144 215 -144
363 0 97 11 136 110 368 39 94 114 274 165 400 99 243 202 495 229 558 13 29
14 38 4 42 -7 3 -231 77 -498 166 -906 300 -1038 356 -1199 505 -239 221 -338
554 -267 900 68 330 201 649 416 994 348 559 839 1008 1300 1185 75 30 274 77
370 89 79 10 257 -5 355 -29z m-2672 -347 c79 -37 160 -117 199 -196 44 -89
50 -202 18 -352 -63 -308 -360 -1787 -360 -1797 0 -9 18 -13 58 -13 l59 0 23
-87 c13 -49 35 -118 50 -155 l28 -68 -829 0 c-456 0 -829 -3 -829 -8 0 -4 63
-84 140 -177 77 -93 140 -173 140 -177 0 -13 26 -9 133 21 205 57 347 75 607
75 244 1 310 -7 505 -55 333 -83 638 -238 905 -460 l61 -51 -125 -89 c-69 -49
-129 -89 -135 -89 -6 0 -39 20 -73 45 -151 112 -351 221 -501 274 -204 72
-361 101 -582 108 -342 11 -642 -53 -950 -202 -295 -143 -495 -300 -750 -587
-38 -43 -59 -58 -87 -63 -88 -16 -163 29 -189 113 -19 65 -1 108 86 206 198
223 413 398 655 535 69 38 132 74 140 79 12 7 5 21 -38 73 -29 35 -115 141
-191 234 -76 94 -144 175 -152 182 -10 8 -91 12 -259 15 l-245 3 -60 32 c-94
49 -140 95 -182 181 -36 73 -38 80 -38 177 1 82 9 140 48 315 26 118 66 310
90 425 23 116 46 216 50 223 6 9 49 12 158 12 148 0 149 0 149 -22 0 -21 -41
-226 -156 -785 -41 -199 -40 -218 13 -242 37 -17 1913 -16 1936 2 19 14 24 36
78 302 374 1876 334 1660 318 1697 -24 59 16 57 -965 58 -657 1 -907 -1 -929
-10 -58 -22 -93 -68 -109 -142 -7 -31 13 -28 -209 -31 -135 -2 -127 -10 -98
105 28 109 65 174 140 249 81 80 174 129 264 139 34 3 483 6 997 6 l935 -1 58
-27z m-1236 -754 c34 -24 73 -98 73 -137 0 -39 -33 -100 -67 -123 -27 -18 -66
-19 -1173 -22 -866 -2 -1152 1 -1174 10 -47 19 -86 83 -86 140 0 87 44 137
130 148 25 3 545 5 1157 5 1106 0 1112 0 1140 -21z m7727 -763 c45 -42 51 -79
51 -306 -1 -144 -6 -251 -18 -340 -30 -216 -48 -309 -63 -333 -26 -39 -74 -62
-131 -62 -47 0 -58 4 -93 36 -58 52 -66 93 -46 219 21 130 46 364 46 438 0 44
-3 57 -15 57 -24 0 -142 -47 -222 -89 -48 -25 -76 -35 -79 -28 -21 59 -84 254
-84 263 0 32 173 112 320 149 76 20 117 24 202 22 97 -2 109 -4 132 -26z
m-1769 -518 c234 -45 387 -155 480 -347 61 -125 79 -204 78 -351 -1 -260 -109
-500 -299 -667 -145 -126 -276 -183 -484 -208 -89 -11 -780 -14 -780 -4 0 3 9
36 20 72 11 37 26 103 33 147 l13 80 215 -3 c242 -4 491 11 570 34 118 34 238
126 312 239 37 56 73 157 88 246 16 97 2 188 -44 280 -40 78 -102 128 -201
161 -62 20 -90 23 -221 22 -82 0 -186 -6 -230 -13 -153 -24 -399 -83 -529
-128 -224 -77 -195 -75 -264 -11 -33 30 -92 76 -131 102 -39 26 -71 49 -71 52
0 10 148 75 265 117 179 63 274 91 453 131 319 72 534 87 727 49z m2320 -964
c245 -26 489 -101 743 -230 223 -113 252 -139 252 -231 0 -61 -28 -109 -81
-136 -63 -33 -109 -25 -217 40 -105 64 -301 149 -419 183 -270 78 -597 96
-919 49 l-40 -6 -43 141 c-24 78 -41 144 -38 147 13 13 242 46 362 52 152 8
261 6 400 -9z m-1502 -478 c26 -76 47 -143 47 -149 0 -6 -35 -35 -77 -65 -186
-131 -355 -292 -488 -462 -154 -197 -316 -512 -380 -738 -21 -75 -53 -111
-110 -127 -101 -28 -195 41 -195 143 0 123 170 510 334 762 124 189 322 407
512 561 85 69 290 212 305 214 3 0 27 -62 52 -139z m-3965 -48 c94 -31 172
-59 172 -63 0 -3 -37 -33 -82 -65 -46 -32 -139 -100 -208 -150 -69 -51 -192
-141 -275 -201 -82 -59 -256 -187 -387 -284 -130 -96 -359 -265 -508 -375
-253 -185 -361 -266 -782 -578 -195 -144 -208 -151 -269 -144 -61 7 -95 30
-120 78 -24 47 -24 97 -2 145 18 37 40 55 308 249 76 55 278 203 449 329 171
126 361 265 421 309 61 44 144 106 185 137 98 73 280 208 510 377 102 75 232
171 290 214 58 43 110 79 115 79 6 0 88 -25 183 -57z m-1803 -123 c57 -12 139
-32 182 -46 143 -45 401 -187 391 -214 -2 -7 -203 -164 -279 -219 -18 -12 -31
-8 -127 37 -64 30 -153 63 -217 79 -97 24 -129 27 -265 27 -226 0 -400 -43
-618 -152 -179 -90 -281 -163 -420 -304 -240 -244 -379 -529 -422 -868 -29
-226 29 -493 152 -697 138 -230 397 -407 686 -468 90 -18 333 -22 452 -5 164
22 400 116 570 226 279 180 467 411 603 739 28 67 65 207 77 294 12 80 9 353
-4 396 -5 16 2 25 31 44 21 13 88 62 150 108 61 45 116 83 122 83 12 0 23 -38
53 -175 29 -135 31 -406 4 -540 -63 -312 -170 -551 -358 -798 -176 -231 -439
-444 -713 -577 -238 -116 -585 -189 -835 -176 -449 23 -843 225 -1094 559
-112 150 -198 348 -243 557 -28 132 -25 469 5 605 80 359 238 652 495 921 163
171 342 299 568 408 209 100 397 156 594 176 119 13 341 2 460 -20z m7235 4
c487 -81 886 -402 1061 -854 66 -168 90 -289 96 -480 8 -232 -13 -372 -89
-595 -66 -192 -190 -411 -328 -579 -387 -472 -991 -743 -1552 -697 -375 30
-672 164 -923 416 -337 337 -470 838 -355 1337 76 328 237 621 476 868 120
123 273 255 297 255 7 0 13 -8 15 -19 2 -10 26 -86 52 -169 l49 -150 -123
-121 c-181 -179 -288 -349 -368 -586 -58 -171 -71 -265 -65 -450 7 -206 36
-317 122 -476 116 -212 293 -373 513 -467 137 -59 257 -79 466 -78 178 0 291
21 451 81 545 204 928 677 996 1230 28 235 -34 510 -163 720 -166 270 -498
458 -842 476 -61 3 -137 2 -169 -4 -55 -9 -59 -8 -67 12 -19 46 -102 327 -98
331 2 3 49 9 104 14 124 12 320 5 444 -15z m-3415 -581 c243 -78 437 -292 505
-558 28 -109 28 -292 0 -399 -61 -233 -180 -404 -369 -530 -123 -82 -271 -135
-461 -165 -102 -17 -2284 -15 -2277 2 12 29 105 263 110 279 6 16 75 18 1079
21 l1073 3 99 31 c145 46 216 86 295 165 180 180 219 459 91 659 -38 58 -110
127 -170 161 -39 23 -160 64 -242 82 -16 4 -28 12 -28 19 0 14 107 198 139
238 19 25 24 26 63 18 24 -5 66 -17 93 -26z"/>
<path d="M11460 13449 c-14 -6 -38 -22 -53 -37 -52 -49 -61 -77 -65 -217 l-4
-130 79 -47 c43 -26 115 -64 161 -83 79 -33 85 -34 112 -20 94 49 203 297 222
505 l3 35 -215 2 c-126 1 -225 -2 -240 -8z"/>
</g>
</svg>
